<svg width="596" height="596" viewBox="0 0 596 596" fill="none" xmlns="http://www.w3.org/2000/svg">
<g filter="url(#filter0_di_1_2)">
<path d="M570.816 279.614L562.426 277.768L522.715 259.327L502.211 270.204L495.891 263.275L481.479 218.821L485.255 202.21L488.093 183.809L478.984 155.957L459.215 138.729L452.813 148.633L462.346 182.545L465.763 201.297L450.128 200.64L442.014 192.113L430.891 177.542L438.21 166.015L423.552 147.009L401.131 171.104L379.221 164.309L372.19 180.912L394.629 200.345L413.286 178.102L432.347 193.211L438.759 204.477L454.301 213.45L452.638 240.898L464.322 285.79L455.834 295.717L434.767 279.691L384.019 276.848L336.134 294.449L323.775 307.352L313.62 301.489L299.734 281.843L276.319 279.954L269.697 301.983L283.017 297.381L297.333 305.063L286.299 321.909L295.979 332.045L300.068 351.829L322.149 357.456L341.87 373.408L363.158 394.732L374.888 403.476L382.242 440.013L409.438 488.006L353.43 523.51L317.774 520.348L290.318 543.265L233.956 546.939L220.583 560.101C339.04 595.095 470.337 546.343 534.821 434.652C562.956 385.851 574.382 331.91 570.816 279.614Z" fill="url(#paint0_linear_1_2)"/>
<path d="M253.557 437.441L254.773 395.471L289.678 371.603L276.57 357.717L269.094 329.58L234.786 297.983L237.507 263.058L228.124 279.309L222.36 275.981L214.983 210.319L236.823 172.49L235.3 117.631L191.697 101.853L165.065 86.4767L156.736 69.9587L181.655 66.279L162.331 60.373C121.515 83.6051 86.0216 117.414 60.8358 161.037C-14.7214 291.906 30.0924 459.296 160.976 534.862C171.056 540.681 181.454 545.497 191.911 549.965L206.015 519.822C206.015 519.822 241.513 483.461 242.35 482.012C243.18 480.54 253.557 437.441 253.557 437.441Z" fill="url(#paint1_linear_1_2)"/>
<path d="M241.625 51.2689L287.113 69.705L312.659 70.2704L330.86 89.1686L366.862 107.379L389.659 95.4924L405.431 108.421L450.048 128.89L469.134 122.768L491.924 121.279L513.17 138.213L522.391 141.826C500.073 109.707 470.789 81.6744 434.65 60.8097C361.09 18.3398 275.959 13.8934 202.137 41.4673L202.257 41.537L241.625 51.2689ZM431.062 90.1637L462.957 90.8136L473.316 108.765L440.93 112.902L418.197 102.654L412.149 90.7927L431.062 90.1637ZM358.249 50.7206L366.362 61.3398L382.92 64.9643L382.917 82.5668L345.73 72.4038L335.448 54.3557C335.448 54.3557 356.273 53.3419 358.249 50.7206Z" fill="url(#paint2_linear_1_2)"/>
</g>
<defs>
<filter id="filter0_di_1_2" x="0.126556" y="0.110931" width="595.323" height="595.155" filterUnits="userSpaceOnUse" color-interpolation-filters="sRGB">
<feFlood flood-opacity="0" result="BackgroundImageFix"/>
<feColorMatrix in="SourceAlpha" type="matrix" values="0 0 0 0 0 0 0 0 0 0 0 0 0 0 0 0 0 0 127 0" result="hardAlpha"/>
<feOffset/>
<feGaussianBlur stdDeviation="12"/>
<feComposite in2="hardAlpha" operator="out"/>
<feColorMatrix type="matrix" values="0 0 0 0 0.0901961 0 0 0 0 1 0 0 0 0 0.698039 0 0 0 0.4 0"/>
<feBlend mode="normal" in2="BackgroundImageFix" result="effect1_dropShadow_1_2"/>
<feBlend mode="normal" in="SourceGraphic" in2="effect1_dropShadow_1_2" result="shape"/>
<feColorMatrix in="SourceAlpha" type="matrix" values="0 0 0 0 0 0 0 0 0 0 0 0 0 0 0 0 0 0 127 0" result="hardAlpha"/>
<feOffset/>
<feGaussianBlur stdDeviation="6"/>
<feComposite in2="hardAlpha" operator="arithmetic" k2="-1" k3="1"/>
<feColorMatrix type="matrix" values="0 0 0 0 1 0 0 0 0 1 0 0 0 0 1 0 0 0 0.25 0"/>
<feBlend mode="normal" in2="shape" result="effect2_innerShadow_1_2"/>
</filter>
<linearGradient id="paint0_linear_1_2" x1="434.673" y1="60.8228" x2="160.984" y2="534.866" gradientUnits="userSpaceOnUse">
<stop stop-color="#006745"/>
<stop offset="1" stop-color="#17FFB2"/>
</linearGradient>
<linearGradient id="paint1_linear_1_2" x1="434.673" y1="60.8228" x2="160.984" y2="534.866" gradientUnits="userSpaceOnUse">
<stop stop-color="#006745"/>
<stop offset="1" stop-color="#17FFB2"/>
</linearGradient>
<linearGradient id="paint2_linear_1_2" x1="434.673" y1="60.8228" x2="160.984" y2="534.866" gradientUnits="userSpaceOnUse">
<stop stop-color="#006745"/>
<stop offset="1" stop-color="#17FFB2"/>
</linearGradient>
</defs>
</svg>
